# xmcd
#
# Track frame offsets:
# 150
# 6733
# 29439
# 48324
# 68189
# 86861
# 106156
# 123996
# 128978
# 148257
# 158896
# 172356
# 195432
# 216471
# 232651
# 234598
# 251263
# 268154
# 286903
#
# Disc length: 3940 seconds
#
#
# Revision: 0
# Processed by: cddbd v1.5.1PL2 Copyright (c) Steve Scherf et al.
# Submitted via: FreeRIP 2.942 
#
DISCID=1e0f6213
DTITLE=mars ILL - Backwaterprophets
DYEAR=2005
DGENRE=Hip-Hop
TTITLE0=Eighty Eight
TTITLE1=Breathe Slow (f. Beat Rabbi)
TTITLE2=Planes And Trains
TTITLE3=Afterlife
TTITLE4=Black Box Artist (Boom Bap)
TTITLE5=Inside Out
TTITLE6=Enterchange
TTITLE7=Let Me
TTITLE8=Alpha Male
TTITLE9=PSA #428
TTITLE10=Freeze Framework
TTITLE11=Sideline Speech
TTITLE12=Next Door
TTITLE13=Piecemeal
TTITLE14=Stepson
TTITLE15=Sunstep
TTITLE16=Lump Sum
TTITLE17=The Calm Before
TTITLE18=He
EXTD=Backbreakanomics Remix
EXTT0=
EXTT1=
EXTT2=
EXTT3=
EXTT4=
EXTT5=
EXTT6=
EXTT7=
EXTT8=
EXTT9=
EXTT10=
EXTT11=
EXTT12=
EXTT13=
EXTT14=
EXTT15=
EXTT16=
EXTT17=
EXTT18=
PLAYORDER=
